<svg width="1024" height="1024" viewBox="0 0 1024 1024" fill="none" xmlns="http://www.w3.org/2000/svg">
<circle cx="512" cy="512" r="331" stroke="currentColor" stroke-width="30"/>
<mask id="path-2-inside-1_3_3" fill="white">
<path d="M710 511.5C710 485.433 704.866 459.62 694.89 435.537C684.915 411.454 670.293 389.572 651.861 371.139C633.428 352.707 611.546 338.085 587.463 328.11C563.38 318.134 537.567 313 511.5 313C485.433 313 459.62 318.134 435.537 328.11C411.454 338.085 389.572 352.707 371.139 371.139C352.707 389.572 338.085 411.454 328.11 435.537C318.134 459.62 313 485.433 313 511.5L511.5 511.5H710Z"/>
</mask>
<path d="M710 511.5C710 485.433 704.866 459.62 694.89 435.537C684.915 411.454 670.293 389.572 651.861 371.139C633.428 352.707 611.546 338.085 587.463 328.11C563.38 318.134 537.567 313 511.5 313C485.433 313 459.62 318.134 435.537 328.11C411.454 338.085 389.572 352.707 371.139 371.139C352.707 389.572 338.085 411.454 328.11 435.537C318.134 459.62 313 485.433 313 511.5L511.5 511.5H710Z" stroke="currentColor" stroke-width="60" mask="url(#path-2-inside-1_3_3)"/>
<rect x="302" y="532" width="420" height="30" rx="10" fill="currentColor"/>
<path fill-rule="evenodd" clip-rule="evenodd" d="M440.907 582L566 647L691.093 582H710V642C710 647.523 705.523 652 700 652H323C317.477 652 313 647.523 313 642V582H440.907Z" fill="currentColor"/>
<path d="M566 627L479.397 582L652.603 582L566 627Z" fill="currentColor"/>
</svg>
