<svg width="1919" height="1024" viewBox="0 0 1919 1024" fill="none" xmlns="http://www.w3.org/2000/svg">
<path d="M1284 319H1840C1845.52 319 1850 323.477 1850 329V349H1284V319Z" fill="black"/>
<path d="M70 329C70 323.477 74.4772 319 80 319H635V349H70V329Z" fill="black"/>
<path d="M70 797H1850V817C1850 822.523 1845.52 827 1840 827H80C74.4772 827 70 822.523 70 817V797Z" fill="black"/>
<path d="M689.97 448.01C695.757 448.837 699.683 450.593 701.75 453.28C704.023 455.967 705.16 459.48 705.16 463.82C705.16 478.08 697.513 484.693 682.22 483.66L671.37 482.73C659.177 481.697 646.983 480.87 634.79 480.25C622.803 479.63 610.197 479.32 596.97 479.32H583.02C580.54 509.907 577.957 537.807 575.27 563.02L628.59 562.09C636.237 562.09 641.3 563.433 643.78 566.12C646.467 568.807 647.81 572.423 647.81 576.97C647.81 583.997 645.743 589.577 641.61 593.71C637.477 597.637 631.587 599.6 623.94 599.6H570.93L569.07 612.93C564.73 647.03 555.43 671.313 541.17 685.78C527.117 700.247 507.69 707.48 482.89 707.48C468.837 707.48 455.92 704.483 444.14 698.49C432.36 692.29 423.68 684.85 418.1 676.17C415.827 672.657 414.69 668.42 414.69 663.46C414.69 658.5 415.827 654.16 418.1 650.44C420.58 646.72 423.577 644.86 427.09 644.86C429.57 644.86 431.947 645.687 434.22 647.34C436.7 648.993 439.8 652.197 443.52 656.95C453.44 669.97 465.737 676.48 480.41 676.48C492.19 676.48 502.007 671.727 509.86 662.22C517.92 652.507 523.087 637.317 525.36 616.65L527.22 599.6H512.34C507.587 599.6 503.453 598.257 499.94 595.57C496.633 592.883 494.98 589.06 494.98 584.1C494.98 577.693 496.633 572.837 499.94 569.53C503.247 566.017 508.103 564.26 514.51 564.26C520.297 564.26 525.98 564.157 531.56 563.95C534.04 541.217 536.727 513.627 539.62 481.18C517.3 483.247 501.593 486.863 492.5 492.03C483.407 497.197 478.86 504.843 478.86 514.97C478.86 521.997 480.927 528.713 485.06 535.12C486.3 536.98 486.92 538.84 486.92 540.7C486.92 544.42 484.853 547.727 480.72 550.62C476.587 553.307 471.937 554.65 466.77 554.65C461.19 554.65 456.437 552.997 452.51 549.69C450.03 547.623 447.653 543.387 445.38 536.98C443.107 530.573 441.97 523.443 441.97 515.59C441.97 489.963 455.093 471.363 481.34 459.79C507.793 448.217 546.337 442.43 596.97 442.43C632.103 442.43 663.103 444.29 689.97 448.01ZM805.646 609.83C808.333 609.83 810.399 611.173 811.846 613.86C813.293 616.547 814.016 619.957 814.016 624.09C814.016 634.01 811.019 639.9 805.026 641.76C792.626 646.1 778.986 648.58 764.106 649.2C760.179 666.56 752.429 680.51 740.856 691.05C729.283 701.383 716.159 706.55 701.486 706.55C689.086 706.55 678.443 703.553 669.556 697.56C660.876 691.567 654.263 683.61 649.716 673.69C645.169 663.77 642.896 653.023 642.896 641.45C642.896 625.743 645.893 611.793 651.886 599.6C657.879 587.2 666.146 577.59 676.686 570.77C687.226 563.743 698.903 560.23 711.716 560.23C727.423 560.23 740.029 565.707 749.536 576.66C759.249 587.407 764.933 600.737 766.586 616.65C776.299 616.03 787.873 613.963 801.306 610.45C802.959 610.037 804.406 609.83 805.646 609.83ZM703.966 673.69C710.579 673.69 716.263 671.003 721.016 665.63C725.976 660.257 729.283 652.507 730.936 642.38C724.529 638.04 719.569 632.357 716.056 625.33C712.749 618.303 711.096 610.863 711.096 603.01C711.096 599.703 711.406 596.397 712.026 593.09H710.476C702.209 593.09 695.286 597.12 689.706 605.18C684.333 613.033 681.646 624.193 681.646 638.66C681.646 650.027 683.816 658.707 688.156 664.7C692.703 670.693 697.973 673.69 703.966 673.69ZM945.509 609.83C948.196 609.83 950.263 611.173 951.709 613.86C953.156 616.547 953.879 619.957 953.879 624.09C953.879 634.01 950.883 639.9 944.889 641.76C932.489 646.1 918.849 648.58 903.969 649.2C900.043 666.56 892.293 680.51 880.719 691.05C869.146 701.383 856.023 706.55 841.349 706.55C828.949 706.55 818.306 703.553 809.419 697.56C800.739 691.567 794.126 683.61 789.579 673.69C785.033 663.77 782.759 653.023 782.759 641.45C782.759 625.743 785.756 611.793 791.749 599.6C797.743 587.2 806.009 577.59 816.549 570.77C827.089 563.743 838.766 560.23 851.579 560.23C867.286 560.23 879.893 565.707 889.399 576.66C899.113 587.407 904.796 600.737 906.449 616.65C916.163 616.03 927.736 613.963 941.169 610.45C942.823 610.037 944.269 609.83 945.509 609.83ZM843.829 673.69C850.443 673.69 856.126 671.003 860.879 665.63C865.839 660.257 869.146 652.507 870.799 642.38C864.393 638.04 859.433 632.357 855.919 625.33C852.613 618.303 850.959 610.863 850.959 603.01C850.959 599.703 851.269 596.397 851.889 593.09H850.339C842.073 593.09 835.149 597.12 829.569 605.18C824.196 613.033 821.509 624.193 821.509 638.66C821.509 650.027 823.679 658.707 828.019 664.7C832.566 670.693 837.836 673.69 843.829 673.69ZM1103.35 635.87C1106.04 635.87 1108.11 637.11 1109.55 639.59C1111.21 642.07 1112.03 645.48 1112.03 649.82C1112.03 658.087 1110.07 664.493 1106.14 669.04C1097.67 679.373 1088.37 688.26 1078.24 695.7C1068.12 702.933 1058.09 706.55 1048.17 706.55C1032.47 706.55 1020.48 697.353 1012.21 678.96C1003.53 689.913 995.886 697.25 989.273 700.97C982.866 704.69 975.323 706.55 966.643 706.55C954.036 706.55 943.599 701.9 935.333 692.6C927.273 683.093 923.243 670.797 923.243 655.71C923.243 639.177 926.756 623.883 933.783 609.83C940.809 595.57 950.419 583.997 962.613 575.11C975.013 566.017 988.859 560.643 1004.15 558.99C1008.08 518.897 1015.52 484.693 1026.47 456.38C1037.63 427.86 1052.2 413.6 1070.18 413.6C1079.07 413.6 1086.41 417.63 1092.19 425.69C1098.19 433.75 1101.18 445.943 1101.18 462.27C1101.18 485.417 1095.5 512.49 1084.13 543.49C1072.77 574.49 1057.58 606.317 1038.56 638.97C1039.39 650.957 1041.15 659.533 1043.83 664.7C1046.73 669.867 1050.34 672.45 1054.68 672.45C1060.26 672.45 1065.95 669.97 1071.73 665.01C1077.52 660.05 1085.27 651.783 1094.98 640.21C1097.46 637.317 1100.25 635.87 1103.35 635.87ZM1066.77 443.98C1062.85 443.98 1058.92 451.007 1054.99 465.06C1051.07 478.907 1047.66 497.093 1044.76 519.62C1042.08 542.147 1040.11 565.707 1038.87 590.3C1062.02 539.873 1073.59 499.367 1073.59 468.78C1073.59 460.927 1072.87 454.83 1071.42 450.49C1070.18 446.15 1068.63 443.98 1066.77 443.98ZM977.493 675.24C981.419 675.24 985.346 673.69 989.273 670.59C993.199 667.283 998.159 661.29 1004.15 652.61C1002.09 641.45 1001.05 628.947 1001.05 615.1C1001.05 610.14 1001.26 602.08 1001.67 590.92C990.306 594.433 980.799 602.08 973.153 613.86C965.713 625.433 961.993 638.35 961.993 652.61C961.993 667.697 967.159 675.24 977.493 675.24ZM1244.91 609.83C1247.6 609.83 1249.67 611.173 1251.11 613.86C1252.56 616.547 1253.28 619.957 1253.28 624.09C1253.28 634.01 1250.29 639.9 1244.29 641.76C1231.89 646.1 1218.25 648.58 1203.37 649.2C1199.45 666.56 1191.7 680.51 1180.12 691.05C1168.55 701.383 1155.43 706.55 1140.75 706.55C1128.35 706.55 1117.71 703.553 1108.82 697.56C1100.14 691.567 1093.53 683.61 1088.98 673.69C1084.44 663.77 1082.16 653.023 1082.16 641.45C1082.16 625.743 1085.16 611.793 1091.15 599.6C1097.15 587.2 1105.41 577.59 1115.95 570.77C1126.49 563.743 1138.17 560.23 1150.98 560.23C1166.69 560.23 1179.3 565.707 1188.8 576.66C1198.52 587.407 1204.2 600.737 1205.85 616.65C1215.57 616.03 1227.14 613.963 1240.57 610.45C1242.23 610.037 1243.67 609.83 1244.91 609.83ZM1143.23 673.69C1149.85 673.69 1155.53 671.003 1160.28 665.63C1165.24 660.257 1168.55 652.507 1170.2 642.38C1163.8 638.04 1158.84 632.357 1155.32 625.33C1152.02 618.303 1150.36 610.863 1150.36 603.01C1150.36 599.703 1150.67 596.397 1151.29 593.09H1149.74C1141.48 593.09 1134.55 597.12 1128.97 605.18C1123.6 613.033 1120.91 624.193 1120.91 638.66C1120.91 650.027 1123.08 658.707 1127.42 664.7C1131.97 670.693 1137.24 673.69 1143.23 673.69ZM1384.78 609.83C1387.46 609.83 1389.53 611.173 1390.98 613.86C1392.42 616.547 1393.15 619.957 1393.15 624.09C1393.15 634.01 1390.15 639.9 1384.16 641.76C1371.76 646.1 1358.12 648.58 1343.24 649.2C1339.31 666.56 1331.56 680.51 1319.99 691.05C1308.41 701.383 1295.29 706.55 1280.62 706.55C1268.22 706.55 1257.57 703.553 1248.69 697.56C1240.01 691.567 1233.39 683.61 1228.85 673.69C1224.3 663.77 1222.03 653.023 1222.03 641.45C1222.03 625.743 1225.02 611.793 1231.02 599.6C1237.01 587.2 1245.28 577.59 1255.82 570.77C1266.36 563.743 1278.03 560.23 1290.85 560.23C1306.55 560.23 1319.16 565.707 1328.67 576.66C1338.38 587.407 1344.06 600.737 1345.72 616.65C1355.43 616.03 1367 613.963 1380.44 610.45C1382.09 610.037 1383.54 609.83 1384.78 609.83ZM1283.1 673.69C1289.71 673.69 1295.39 671.003 1300.15 665.63C1305.11 660.257 1308.41 652.507 1310.07 642.38C1303.66 638.04 1298.7 632.357 1295.19 625.33C1291.88 618.303 1290.23 610.863 1290.23 603.01C1290.23 599.703 1290.54 596.397 1291.16 593.09H1289.61C1281.34 593.09 1274.42 597.12 1268.84 605.18C1263.46 613.033 1260.78 624.193 1260.78 638.66C1260.78 650.027 1262.95 658.707 1267.29 664.7C1271.83 670.693 1277.1 673.69 1283.1 673.69ZM1479.38 635.87C1481.65 652.817 1484.96 669.557 1489.3 686.09C1490.13 688.777 1490.54 691.567 1490.54 694.46C1490.54 703.76 1484.86 708.41 1473.49 708.41C1467.08 708.41 1462.12 706.653 1458.61 703.14C1455.3 699.627 1452.2 693.013 1449.31 683.3L1449 682.06C1441.15 691.773 1434.02 698.283 1427.61 701.59C1421.41 704.897 1414.18 706.55 1405.91 706.55C1393.3 706.55 1382.87 701.9 1374.6 692.6C1366.54 683.093 1362.51 670.797 1362.51 655.71C1362.51 639.177 1366.02 623.883 1373.05 609.83C1380.08 595.777 1389.69 584.307 1401.88 575.42C1414.07 566.327 1427.71 560.85 1442.8 558.99C1446.73 519.93 1454.17 485.933 1465.12 457C1476.28 428.067 1491.06 413.6 1509.45 413.6C1518.34 413.6 1525.67 417.63 1531.46 425.69C1537.45 433.75 1540.45 445.943 1540.45 462.27C1540.45 485.003 1534.87 511.56 1523.71 541.94C1512.55 572.32 1497.77 603.63 1479.38 635.87ZM1506.04 443.98C1500.05 443.98 1494.36 459.273 1488.99 489.86C1483.82 520.447 1480.31 553.72 1478.45 589.68C1501.39 540.08 1512.86 499.78 1512.86 468.78C1512.86 460.927 1512.14 454.83 1510.69 450.49C1509.45 446.15 1507.9 443.98 1506.04 443.98ZM1416.76 675.24C1420.89 675.24 1424.82 673.69 1428.54 670.59C1432.47 667.49 1437.43 661.497 1443.42 652.61C1441.35 637.523 1440.32 621.92 1440.32 605.8C1440.32 599.393 1440.42 594.433 1440.63 590.92C1429.26 594.227 1419.86 601.77 1412.42 613.55C1404.98 625.33 1401.26 638.35 1401.26 652.61C1401.26 667.697 1406.43 675.24 1416.76 675.24Z" fill="black"/>
<rect x="70" y="349" width="30" height="448" fill="black"/>
<rect x="1820" y="349" width="30" height="448" fill="black"/>
<mask id="path-7-inside-1_3_11" fill="white">
<path d="M1158 242.5C1158 216.433 1152.87 190.62 1142.89 166.537C1132.91 142.454 1118.29 120.572 1099.86 102.139C1081.43 83.7069 1059.55 69.0855 1035.46 59.1099C1011.38 49.1344 985.567 44 959.5 44C933.433 44 907.62 49.1344 883.537 59.1099C859.454 69.0855 837.572 83.7069 819.139 102.139C800.707 120.572 786.085 142.454 776.11 166.537C766.134 190.62 761 216.433 761 242.5L959.5 242.5H1158Z"/>
</mask>
<path d="M1158 242.5C1158 216.433 1152.87 190.62 1142.89 166.537C1132.91 142.454 1118.29 120.572 1099.86 102.139C1081.43 83.7069 1059.55 69.0855 1035.46 59.1099C1011.38 49.1344 985.567 44 959.5 44C933.433 44 907.62 49.1344 883.537 59.1099C859.454 69.0855 837.572 83.7069 819.139 102.139C800.707 120.572 786.085 142.454 776.11 166.537C766.134 190.62 761 216.433 761 242.5L959.5 242.5H1158Z" stroke="black" stroke-width="60" mask="url(#path-7-inside-1_3_11)"/>
<rect x="750" y="263" width="420" height="30" rx="10" fill="black"/>
<path fill-rule="evenodd" clip-rule="evenodd" d="M888.907 313L1014 378L1139.09 313H1158V373C1158 378.523 1153.52 383 1148 383H771C765.477 383 761 378.523 761 373V313H888.907Z" fill="black"/>
<path d="M1014 358L927.397 313L1100.6 313L1014 358Z" fill="black"/>
<path d="M519.7 958.8C510.833 958.8 503.733 957.133 498.4 953.8C493.067 950.4 490.4 945.233 490.4 938.3C490.4 934.633 491.033 931.833 492.3 929.9C493.567 927.967 495.433 927 497.9 927C499.7 927 501.167 927.467 502.3 928.4C503.433 929.333 504 930.533 504 932C504 933.333 503.9 934.5 503.7 935.5C503.7 935.767 503.633 936.233 503.5 936.9C503.433 937.567 503.4 938.267 503.4 939C503.4 942 504.9 944.233 507.9 945.7C510.967 947.167 515.233 947.9 520.7 947.9C526.367 947.9 530.8 946.9 534 944.9C537.2 942.833 538.8 939.967 538.8 936.3C538.8 934.033 538.067 932.1 536.6 930.5C535.133 928.833 533.3 927.467 531.1 926.4C528.9 925.267 525.8 923.9 521.8 922.3C516.667 920.3 512.467 918.4 509.2 916.6C506 914.8 503.233 912.367 500.9 909.3C498.633 906.167 497.5 902.3 497.5 897.7C497.5 892.9 498.767 888.633 501.3 884.9C503.9 881.167 507.6 878.267 512.4 876.2C517.267 874.133 522.967 873.1 529.5 873.1C534.367 873.1 538.833 873.833 542.9 875.3C546.967 876.7 550.2 878.867 552.6 881.8C555.067 884.733 556.3 888.333 556.3 892.6C556.3 896.8 555.667 899.967 554.4 902.1C553.133 904.233 551.267 905.3 548.8 905.3C547.067 905.3 545.6 904.767 544.4 903.7C543.267 902.633 542.7 901.367 542.7 899.9C542.7 898.633 542.8 897.467 543 896.4C543.2 894.4 543.3 893.133 543.3 892.6C543.3 889.8 541.933 887.667 539.2 886.2C536.467 884.733 533.067 884 529 884C523.267 884 518.867 885.067 515.8 887.2C512.8 889.267 511.3 892.2 511.3 896C511.3 898.533 512.067 900.7 513.6 902.5C515.2 904.3 517.167 905.8 519.5 907C521.833 908.2 525.1 909.633 529.3 911.3C534.367 913.367 538.433 915.233 541.5 916.9C544.567 918.567 547.167 920.833 549.3 923.7C551.5 926.567 552.6 930.1 552.6 934.3C552.6 942.167 549.6 948.233 543.6 952.5C537.667 956.7 529.7 958.8 519.7 958.8ZM573.436 958.5C569.303 958.5 566.003 957 563.536 954C561.069 951 559.836 947.067 559.836 942.2C559.836 936.867 561.069 931.833 563.536 927.1C566.003 922.3 569.269 918.467 573.336 915.6C577.469 912.667 581.836 911.2 586.436 911.2C587.903 911.2 588.869 911.5 589.336 912.1C589.869 912.633 590.303 913.633 590.636 915.1C592.036 914.833 593.503 914.7 595.036 914.7C598.303 914.7 599.936 915.867 599.936 918.2C599.936 919.6 599.436 922.933 598.436 928.2C596.903 935.867 596.136 941.2 596.136 944.2C596.136 945.2 596.369 946 596.836 946.6C597.369 947.2 598.036 947.5 598.836 947.5C600.103 947.5 601.636 946.7 603.436 945.1C605.236 943.433 607.669 940.767 610.736 937.1C611.536 936.167 612.436 935.7 613.436 935.7C614.303 935.7 614.969 936.1 615.436 936.9C615.969 937.7 616.236 938.8 616.236 940.2C616.236 942.867 615.603 944.933 614.336 946.4C611.603 949.8 608.703 952.667 605.636 955C602.569 957.333 599.603 958.5 596.736 958.5C594.536 958.5 592.503 957.767 590.636 956.3C588.836 954.767 587.469 952.7 586.536 950.1C583.069 955.7 578.703 958.5 573.436 958.5ZM577.036 948.4C578.503 948.4 579.903 947.533 581.236 945.8C582.569 944.067 583.536 941.767 584.136 938.9L587.836 920.5C585.036 920.567 582.436 921.633 580.036 923.7C577.703 925.7 575.836 928.367 574.436 931.7C573.036 935.033 572.336 938.567 572.336 942.3C572.336 944.367 572.736 945.9 573.536 946.9C574.403 947.9 575.569 948.4 577.036 948.4ZM652.709 935.7C653.575 935.7 654.242 936.1 654.709 936.9C655.242 937.7 655.509 938.8 655.509 940.2C655.509 942.867 654.875 944.933 653.609 946.4C650.742 949.933 647.609 952.833 644.209 955.1C640.809 957.367 636.909 958.5 632.509 958.5C618.909 958.5 612.109 948.933 612.109 929.8C612.109 926.867 612.209 923.9 612.409 920.9H608.509C606.509 920.9 605.142 920.533 604.409 919.8C603.742 919.067 603.409 917.9 603.409 916.3C603.409 912.567 604.909 910.7 607.909 910.7H613.609C614.742 903.367 616.475 896.667 618.809 890.6C621.142 884.533 623.942 879.7 627.209 876.1C630.542 872.5 634.109 870.7 637.909 870.7C640.709 870.7 642.909 871.933 644.509 874.4C646.109 876.867 646.909 879.967 646.909 883.7C646.909 894.033 642.575 903.033 633.909 910.7H645.109C646.175 910.7 646.942 910.933 647.409 911.4C647.875 911.867 648.109 912.733 648.109 914C648.109 918.6 644.342 920.9 636.809 920.9H624.609C624.475 924.233 624.409 926.833 624.409 928.7C624.409 935.633 625.209 940.5 626.809 943.3C628.475 946.1 631.075 947.5 634.609 947.5C637.475 947.5 640.009 946.633 642.209 944.9C644.409 943.167 647.009 940.567 650.009 937.1C650.809 936.167 651.709 935.7 652.709 935.7ZM635.209 880.3C634.209 880.3 633.075 881.567 631.809 884.1C630.609 886.567 629.442 890.033 628.309 894.5C627.242 898.9 626.342 903.8 625.609 909.2C629.542 905.8 632.475 902 634.409 897.8C636.409 893.533 637.409 889.667 637.409 886.2C637.409 882.267 636.675 880.3 635.209 880.3ZM660.466 904.8C657.666 904.8 655.566 904.167 654.166 902.9C652.766 901.567 652.066 899.733 652.066 897.4C652.066 895.067 652.966 893.133 654.766 891.6C656.633 890 658.933 889.2 661.666 889.2C664.133 889.2 666.133 889.8 667.666 891C669.2 892.2 669.966 893.9 669.966 896.1C669.966 898.767 669.1 900.9 667.366 902.5C665.633 904.033 663.333 904.8 660.466 904.8ZM659.666 958.5C655.333 958.5 652.166 956.967 650.166 953.9C648.233 950.833 647.266 946.767 647.266 941.7C647.266 938.7 647.633 934.867 648.366 930.2C649.166 925.467 650.166 921.067 651.366 917C651.966 914.867 652.766 913.4 653.766 912.6C654.766 911.8 656.366 911.4 658.566 911.4C661.966 911.4 663.666 912.533 663.666 914.8C663.666 916.467 663.033 920.333 661.766 926.4C660.166 933.733 659.366 938.7 659.366 941.3C659.366 943.3 659.633 944.833 660.166 945.9C660.7 946.967 661.6 947.5 662.866 947.5C664.066 947.5 665.566 946.667 667.366 945C669.166 943.333 671.566 940.7 674.566 937.1C675.366 936.167 676.266 935.7 677.266 935.7C678.133 935.7 678.8 936.1 679.266 936.9C679.8 937.7 680.066 938.8 680.066 940.2C680.066 942.867 679.433 944.933 678.166 946.4C671.566 954.467 665.4 958.5 659.666 958.5ZM690.576 960.7C687.109 960.7 684.442 959.9 682.576 958.3C680.776 956.7 679.876 954.9 679.876 952.9C679.876 951.167 680.509 949.667 681.776 948.4C683.042 947.133 684.909 946.5 687.376 946.5C688.242 946.5 689.242 946.6 690.376 946.8C691.576 946.933 692.476 947.033 693.076 947.1C693.009 945.367 692.609 943.733 691.876 942.2C691.209 940.667 690.342 939.2 689.276 937.8C688.209 936.333 687.209 935.067 686.276 934C684.209 937.933 682.142 941.2 680.076 943.8C678.076 946.4 675.876 948.867 673.476 951.2C672.276 952.4 671.009 953 669.676 953C668.609 953 667.742 952.633 667.076 951.9C666.409 951.1 666.076 950.133 666.076 949C666.076 947.667 666.542 946.433 667.476 945.3L668.776 943.7C672.442 939.167 675.209 935.433 677.076 932.5C678.209 930.567 679.542 928 681.076 924.8C682.609 921.533 684.109 918.167 685.576 914.7C686.842 911.767 689.476 910.3 693.476 910.3C695.342 910.3 696.642 910.467 697.376 910.8C698.109 911.133 698.476 911.667 698.476 912.4C698.476 912.8 698.342 913.433 698.076 914.3C697.809 915.167 697.442 916.033 696.976 916.9C695.776 919.3 695.176 921.333 695.176 923C695.176 924 695.509 925.1 696.176 926.3C696.909 927.5 698.009 929 699.476 930.8C701.609 933.6 703.209 936 704.276 938C705.409 939.933 705.976 942.067 705.976 944.4C705.976 945.067 705.909 946 705.776 947.2C709.042 945.933 712.876 942.567 717.276 937.1C718.076 936.167 718.976 935.7 719.976 935.7C720.842 935.7 721.509 936.1 721.976 936.9C722.509 937.7 722.776 938.8 722.776 940.2C722.776 942.733 722.142 944.8 720.876 946.4C717.542 950.533 714.342 953.367 711.276 954.9C708.276 956.367 704.542 957.167 700.076 957.3C697.409 959.567 694.242 960.7 690.576 960.7ZM753.575 930C755.442 930 756.375 931.4 756.375 934.2C756.375 939.467 752.242 942.1 743.975 942.1C742.375 942.1 740.075 941.8 737.075 941.2C737.942 945.333 738.642 949.933 739.175 955C739.775 960 740.075 964.133 740.075 967.4C740.075 974.6 738.908 980.1 736.575 983.9C734.242 987.7 731.175 989.6 727.375 989.6C722.575 989.6 719.142 986.2 717.075 979.4C715.075 972.6 714.075 962.333 714.075 948.6C714.075 935.8 715.442 922.833 718.175 909.7C720.975 896.5 724.775 885.6 729.575 877C734.442 868.333 739.775 864 745.575 864C748.708 864 751.142 865.4 752.875 868.2C754.675 871 755.575 874.767 755.575 879.5C755.575 895.167 746.208 912.233 727.475 930.7C726.808 937.233 726.475 942.967 726.475 947.9C726.475 954.767 726.708 961.8 727.175 969C727.642 976.267 728.408 979.9 729.475 979.9C731.475 979.9 732.475 976.433 732.475 969.5C732.475 964.3 732.108 959.267 731.375 954.4C730.708 949.533 729.775 944.4 728.575 939C728.508 938.133 728.775 937.033 729.375 935.7C730.042 934.367 730.842 933.2 731.775 932.2C732.708 931.2 733.542 930.7 734.275 930.7C735.608 930.7 737.208 930.767 739.075 930.9C739.675 930.967 740.375 931 741.175 931C743.842 931 746.808 930.767 750.075 930.3C750.608 930.233 751.175 930.167 751.775 930.1C752.375 930.033 752.975 930 753.575 930ZM743.475 873.9C742.275 873.9 740.775 875.933 738.975 880C737.242 884.067 735.508 889.467 733.775 896.2C732.042 902.867 730.542 909.933 729.275 917.4C734.608 911.333 738.708 905.033 741.575 898.5C744.442 891.9 745.908 885.733 745.975 880C745.975 875.933 745.142 873.9 743.475 873.9ZM783.831 911.4C785.365 911.4 786.431 911.6 787.031 912C787.631 912.4 787.931 913.067 787.931 914C787.931 915.6 787.065 921.3 785.331 931.1C783.798 940.5 782.898 946.067 782.631 947.8C780.165 964.933 776.765 978.5 772.431 988.5C768.098 998.5 762.331 1003.5 755.131 1003.5C751.731 1003.5 748.965 1002.43 746.831 1000.3C744.698 998.233 743.631 995.5 743.631 992.1C743.631 988.967 744.331 985.767 745.731 982.5C747.198 979.233 749.865 975.467 753.731 971.2C757.665 967 763.198 962.167 770.331 956.7L770.631 954.4C771.098 951.933 771.631 948.4 772.231 943.8C770.898 948.6 769.031 952.267 766.631 954.8C764.231 957.267 761.698 958.5 759.031 958.5C756.031 958.5 753.565 957.133 751.631 954.4C749.765 951.6 748.831 948.133 748.831 944C748.831 939 749.165 934.433 749.831 930.3C750.498 926.1 751.598 921.667 753.131 917C753.798 915 754.731 913.567 755.931 912.7C757.131 911.833 759.031 911.4 761.631 911.4C763.098 911.4 764.098 911.633 764.631 912.1C765.231 912.567 765.531 913.267 765.531 914.2C765.531 914.733 765.165 916.533 764.431 919.6C763.765 922.067 763.231 924.3 762.831 926.3C762.298 929.033 761.831 931.667 761.431 934.2C761.031 936.667 760.831 938.7 760.831 940.3C760.831 942.833 761.531 944.1 762.931 944.1C763.931 944.1 765.165 943.1 766.631 941.1C768.165 939.1 769.765 936.067 771.431 932C773.165 927.933 774.831 922.933 776.431 917C776.965 915 777.765 913.567 778.831 912.7C779.965 911.833 781.631 911.4 783.831 911.4ZM756.231 993.8C757.898 993.8 759.765 991.867 761.831 988C763.898 984.133 765.965 977.7 768.031 968.7C762.898 973.033 759.165 976.967 756.831 980.5C754.565 984.1 753.431 987.233 753.431 989.9C753.431 991.033 753.631 991.967 754.031 992.7C754.498 993.433 755.231 993.8 756.231 993.8ZM906.218 935.6C906.618 935.467 907.218 935.4 908.018 935.4C910.285 935.4 911.418 936.867 911.418 939.8C911.418 941.4 911.051 942.767 910.318 943.9C909.651 944.967 908.585 945.633 907.118 945.9C901.051 947.033 895.085 948.3 889.218 949.7L888.918 952.1C887.051 965.233 883.318 974.933 877.718 981.2C872.185 987.533 865.251 990.7 856.918 990.7C851.385 990.7 847.085 989.333 844.018 986.6C841.018 983.933 839.518 980.5 839.518 976.3C839.518 969.3 842.651 963.067 848.918 957.6C855.185 952.133 864.685 947.3 877.418 943.1L879.418 929C879.685 927.4 880.018 925.267 880.418 922.6C877.285 930.867 873.285 937.033 868.418 941.1C863.551 945.167 858.118 947.2 852.118 947.2C846.385 947.2 842.018 945.467 839.018 942C836.018 938.467 834.518 933.933 834.518 928.4C834.518 925.933 834.785 923.233 835.318 920.3C835.851 917.3 836.685 913.267 837.818 908.2C838.818 903.6 839.551 899.933 840.018 897.2C840.551 894.467 840.818 892.033 840.818 889.9C840.818 886.7 839.585 885.1 837.118 885.1C835.185 885.1 832.885 886.067 830.218 888C827.618 889.867 824.851 892.767 821.918 896.7C820.985 897.967 819.951 898.6 818.818 898.6C817.885 898.6 817.051 898.167 816.318 897.3C815.651 896.367 815.318 895.333 815.318 894.2C815.318 892.133 816.251 889.8 818.118 887.2C824.918 877.867 832.885 873.2 842.018 873.2C846.085 873.2 849.251 874.433 851.518 876.9C853.851 879.367 855.018 883 855.018 887.8C855.018 891.267 854.685 894.833 854.018 898.5C853.418 902.1 852.485 906.7 851.218 912.3C850.418 915.633 849.818 918.333 849.418 920.4C849.018 922.4 848.818 924.067 848.818 925.4C848.818 928.8 849.418 931.233 850.618 932.7C851.818 934.167 853.918 934.9 856.918 934.9C860.518 934.9 864.185 932.933 867.918 929C871.718 925 875.118 918.967 878.118 910.9C881.185 902.833 883.385 892.967 884.718 881.3C885.051 878.367 885.818 876.3 887.018 875.1C888.218 873.833 889.951 873.2 892.218 873.2C896.885 873.2 899.218 875.533 899.218 880.2C899.218 881 899.185 881.633 899.118 882.1C897.718 892.033 896.418 901 895.218 909C894.551 913.8 893.818 918.733 893.018 923.8C892.285 928.867 891.551 934 890.818 939.2C895.685 937.867 900.818 936.667 906.218 935.6ZM875.918 953.6C859.785 959.2 851.718 966 851.718 974C851.718 975.867 852.285 977.4 853.418 978.6C854.618 979.867 856.285 980.5 858.418 980.5C867.685 980.5 873.485 971.767 875.818 954.3L875.918 953.6ZM956.277 927.3C957.143 927.3 957.81 927.733 958.277 928.6C958.743 929.467 958.977 930.567 958.977 931.9C958.977 935.1 958.01 937 956.077 937.6C952.077 939 947.677 939.8 942.877 940C941.61 945.6 939.11 950.1 935.377 953.5C931.643 956.833 927.41 958.5 922.677 958.5C918.677 958.5 915.243 957.533 912.377 955.6C909.577 953.667 907.443 951.1 905.977 947.9C904.51 944.7 903.777 941.233 903.777 937.5C903.777 932.433 904.743 927.933 906.677 924C908.61 920 911.277 916.9 914.677 914.7C918.077 912.433 921.843 911.3 925.977 911.3C931.043 911.3 935.11 913.067 938.177 916.6C941.31 920.067 943.143 924.367 943.677 929.5C946.81 929.3 950.543 928.633 954.877 927.5C955.41 927.367 955.877 927.3 956.277 927.3ZM923.477 947.9C925.61 947.9 927.443 947.033 928.977 945.3C930.577 943.567 931.643 941.067 932.177 937.8C930.11 936.4 928.51 934.567 927.377 932.3C926.31 930.033 925.777 927.633 925.777 925.1C925.777 924.033 925.877 922.967 926.077 921.9H925.577C922.91 921.9 920.677 923.2 918.877 925.8C917.143 928.333 916.277 931.933 916.277 936.6C916.277 940.267 916.977 943.067 918.377 945C919.843 946.933 921.543 947.9 923.477 947.9ZM960.594 958.5C957.594 958.5 955.127 957.133 953.194 954.4C951.327 951.6 950.394 948.133 950.394 944C950.394 939 950.727 934.433 951.394 930.3C952.06 926.1 953.16 921.667 954.694 917C955.36 915 956.294 913.567 957.494 912.7C958.694 911.833 960.594 911.4 963.194 911.4C964.66 911.4 965.66 911.633 966.194 912.1C966.794 912.567 967.094 913.267 967.094 914.2C967.094 914.733 966.727 916.533 965.994 919.6C965.327 922.067 964.794 924.3 964.394 926.3C963.06 933.3 962.394 937.967 962.394 940.3C962.394 941.7 962.56 942.7 962.894 943.3C963.227 943.833 963.76 944.1 964.494 944.1C965.494 944.1 966.727 943.1 968.194 941.1C969.727 939.1 971.327 936.067 972.994 932C974.727 927.933 976.394 922.933 977.994 917C978.527 915 979.327 913.567 980.394 912.7C981.527 911.833 983.194 911.4 985.394 911.4C986.927 911.4 987.994 911.6 988.594 912C989.194 912.333 989.494 913 989.494 914C989.494 915.667 988.66 920.233 986.994 927.7C985.127 936.233 984.194 941.5 984.194 943.5C984.194 944.767 984.46 945.767 984.994 946.5C985.527 947.167 986.227 947.5 987.094 947.5C988.427 947.5 989.994 946.7 991.794 945.1C993.66 943.433 996.127 940.767 999.194 937.1C999.994 936.167 1000.89 935.7 1001.89 935.7C1002.76 935.7 1003.43 936.1 1003.89 936.9C1004.43 937.7 1004.69 938.8 1004.69 940.2C1004.69 942.867 1004.06 944.933 1002.79 946.4C999.927 949.933 996.827 952.833 993.494 955.1C990.227 957.367 986.494 958.5 982.294 958.5C979.094 958.5 976.727 957.267 975.194 954.8C973.727 952.333 972.994 948.867 972.994 944.4C971.86 948.933 970.16 952.433 967.894 954.9C965.627 957.3 963.194 958.5 960.594 958.5ZM1036.99 925.1C1038.45 925.1 1039.69 925.633 1040.69 926.7C1041.75 927.7 1042.29 928.967 1042.29 930.5C1042.29 931.367 1042.09 932.3 1041.69 933.3C1040.62 935.767 1039.12 937.833 1037.19 939.5C1035.25 941.167 1033.12 942 1030.79 942C1028.92 942 1027.32 941.333 1025.99 940C1024.72 938.667 1024.09 936.867 1024.09 934.6C1024.09 933.333 1024.15 931.967 1024.29 930.5C1024.42 929.433 1024.49 928.7 1024.49 928.3C1024.49 927.767 1024.35 927.367 1024.09 927.1C1023.89 926.833 1023.62 926.7 1023.29 926.7C1022.35 926.7 1021.09 927.833 1019.49 930.1C1017.89 932.3 1016.29 935.233 1014.69 938.9C1013.09 942.567 1011.79 946.433 1010.79 950.5C1010.05 953.7 1009.22 955.833 1008.29 956.9C1007.35 957.967 1005.82 958.5 1003.69 958.5C1001.15 958.5 999.352 957.167 998.285 954.5C997.285 951.833 996.785 947.567 996.785 941.7C996.785 933.033 998.018 924.8 1000.49 917C1001.09 915.067 1002.05 913.667 1003.39 912.8C1004.79 911.867 1006.72 911.4 1009.19 911.4C1010.52 911.4 1011.45 911.567 1011.99 911.9C1012.52 912.233 1012.79 912.867 1012.79 913.8C1012.79 914.867 1012.29 917.267 1011.29 921C1010.62 923.667 1010.09 926 1009.69 928C1009.29 930 1008.95 932.467 1008.69 935.4C1010.89 929.667 1013.35 925 1016.09 921.4C1018.82 917.8 1021.49 915.233 1024.09 913.7C1026.69 912.167 1029.05 911.4 1031.19 911.4C1033.12 911.4 1034.59 911.967 1035.59 913.1C1036.65 914.167 1037.19 915.767 1037.19 917.9C1037.19 919.167 1036.82 921.567 1036.09 925.1H1036.99ZM1113.06 958.5C1105.13 958.5 1098.23 957.067 1092.36 954.2C1086.5 951.267 1082 947.133 1078.86 941.8C1075.73 936.467 1074.16 930.267 1074.16 923.2C1074.16 913.4 1076 904.7 1079.66 897.1C1083.4 889.5 1088.43 883.633 1094.76 879.5C1101.1 875.3 1108.13 873.2 1115.86 873.2C1123.06 873.2 1128.53 875.067 1132.26 878.8C1136 882.467 1137.86 887.333 1137.86 893.4C1137.86 897.467 1137.13 900.733 1135.66 903.2C1134.26 905.667 1132.23 906.9 1129.56 906.9C1127.7 906.9 1126.23 906.467 1125.16 905.6C1124.1 904.733 1123.56 903.467 1123.56 901.8C1123.56 901.2 1123.7 900.1 1123.96 898.5C1124.36 896.5 1124.56 894.9 1124.56 893.7C1124.56 887.633 1121.33 884.6 1114.86 884.6C1110.46 884.6 1106.26 886.033 1102.26 888.9C1098.26 891.767 1095.03 896 1092.56 901.6C1090.1 907.133 1088.86 913.733 1088.86 921.4C1088.86 929.4 1091.1 935.6 1095.56 940C1100.03 944.333 1106.63 946.5 1115.36 946.5C1119.7 946.5 1124.06 945.967 1128.46 944.9C1132.93 943.767 1137.86 942.067 1143.26 939.8C1144.26 939.4 1145.1 939.2 1145.76 939.2C1146.83 939.2 1147.63 939.6 1148.16 940.4C1148.7 941.2 1148.96 942.233 1148.96 943.5C1148.96 947.567 1146.76 950.567 1142.36 952.5C1137.63 954.567 1132.7 956.1 1127.56 957.1C1122.5 958.033 1117.66 958.5 1113.06 958.5ZM1148.22 958.5C1145.68 958.5 1143.88 957.167 1142.82 954.5C1141.82 951.833 1141.32 947.567 1141.32 941.7C1141.32 933.033 1142.55 924.8 1145.02 917C1145.62 915.067 1146.58 913.667 1147.92 912.8C1149.32 911.867 1151.25 911.4 1153.72 911.4C1155.05 911.4 1155.98 911.567 1156.52 911.9C1157.05 912.233 1157.32 912.867 1157.32 913.8C1157.32 914.867 1156.82 917.267 1155.82 921C1155.15 923.667 1154.62 926 1154.22 928C1153.82 930 1153.48 932.467 1153.22 935.4C1155.42 929.667 1157.88 925 1160.62 921.4C1163.35 917.8 1166.02 915.233 1168.62 913.7C1171.28 912.167 1173.72 911.4 1175.92 911.4C1180.25 911.4 1182.42 913.567 1182.42 917.9C1182.42 918.767 1182.12 920.867 1181.52 924.2C1180.98 926.867 1180.72 928.533 1180.72 929.2C1180.72 931.533 1181.55 932.7 1183.22 932.7C1185.08 932.7 1187.48 931.233 1190.42 928.3C1191.28 927.433 1192.18 927 1193.12 927C1193.98 927 1194.65 927.4 1195.12 928.2C1195.65 928.933 1195.92 929.933 1195.92 931.2C1195.92 933.667 1195.25 935.6 1193.92 937C1192.05 938.933 1189.85 940.6 1187.32 942C1184.85 943.333 1182.22 944 1179.42 944C1175.88 944 1173.18 943.1 1171.32 941.3C1169.52 939.5 1168.62 937.067 1168.62 934C1168.62 933 1168.72 932 1168.92 931C1169.05 929.667 1169.12 928.767 1169.12 928.3C1169.12 927.233 1168.75 926.7 1168.02 926.7C1167.02 926.7 1165.68 927.833 1164.02 930.1C1162.42 932.3 1160.82 935.233 1159.22 938.9C1157.62 942.567 1156.32 946.433 1155.32 950.5C1154.58 953.633 1153.72 955.767 1152.72 956.9C1151.78 957.967 1150.28 958.5 1148.22 958.5ZM1198.92 958.5C1194.79 958.5 1191.49 957 1189.02 954C1186.56 951 1185.32 947.067 1185.32 942.2C1185.32 936.867 1186.56 931.833 1189.02 927.1C1191.49 922.3 1194.76 918.467 1198.82 915.6C1202.96 912.667 1207.32 911.2 1211.92 911.2C1213.39 911.2 1214.36 911.5 1214.82 912.1C1215.36 912.633 1215.79 913.633 1216.12 915.1C1217.52 914.833 1218.99 914.7 1220.52 914.7C1223.79 914.7 1225.42 915.867 1225.42 918.2C1225.42 919.6 1224.92 922.933 1223.92 928.2C1222.39 935.867 1221.62 941.2 1221.62 944.2C1221.62 945.2 1221.86 946 1222.32 946.6C1222.86 947.2 1223.52 947.5 1224.32 947.5C1225.59 947.5 1227.12 946.7 1228.92 945.1C1230.72 943.433 1233.16 940.767 1236.22 937.1C1237.02 936.167 1237.92 935.7 1238.92 935.7C1239.79 935.7 1240.46 936.1 1240.92 936.9C1241.46 937.7 1241.72 938.8 1241.72 940.2C1241.72 942.867 1241.09 944.933 1239.82 946.4C1237.09 949.8 1234.19 952.667 1231.12 955C1228.06 957.333 1225.09 958.5 1222.22 958.5C1220.02 958.5 1217.99 957.767 1216.12 956.3C1214.32 954.767 1212.96 952.7 1212.02 950.1C1208.56 955.7 1204.19 958.5 1198.92 958.5ZM1202.52 948.4C1203.99 948.4 1205.39 947.533 1206.72 945.8C1208.06 944.067 1209.02 941.767 1209.62 938.9L1213.32 920.5C1210.52 920.567 1207.92 921.633 1205.52 923.7C1203.19 925.7 1201.32 928.367 1199.92 931.7C1198.52 935.033 1197.82 938.567 1197.82 942.3C1197.82 944.367 1198.22 945.9 1199.02 946.9C1199.89 947.9 1201.06 948.4 1202.52 948.4ZM1284.07 927.6C1284.27 927.533 1284.61 927.5 1285.07 927.5C1286.07 927.5 1286.84 927.833 1287.37 928.5C1287.91 929.167 1288.17 930.067 1288.17 931.2C1288.17 933.267 1287.77 934.9 1286.97 936.1C1286.17 937.233 1284.97 938.067 1283.37 938.6C1280.31 939.6 1277.04 940.1 1273.57 940.1C1270.64 940.1 1267.87 939.7 1265.27 938.9C1263.34 942.033 1261.21 945.267 1258.87 948.6C1256.21 952.4 1253.91 955 1251.97 956.4C1250.04 957.8 1247.84 958.5 1245.37 958.5C1242.64 958.5 1240.47 957.433 1238.87 955.3C1237.34 953.167 1236.37 949.8 1235.97 945.2C1235.17 935.867 1234.77 927.7 1234.77 920.7V917.2C1234.84 915 1235.44 913.467 1236.57 912.6C1237.71 911.733 1239.41 911.3 1241.67 911.3C1243.41 911.3 1244.67 911.7 1245.47 912.5C1246.34 913.233 1246.77 914.5 1246.77 916.3C1246.77 923.967 1247.24 933.933 1248.17 946.2C1252.17 940.267 1255.17 935.533 1257.17 932C1256.17 930.067 1255.67 927.767 1255.67 925.1C1255.67 922.833 1256.17 920.633 1257.17 918.5C1258.17 916.367 1259.54 914.633 1261.27 913.3C1263.01 911.967 1264.97 911.3 1267.17 911.3C1269.11 911.3 1270.67 912 1271.87 913.4C1273.07 914.733 1273.67 916.7 1273.67 919.3C1273.67 922.3 1272.87 925.733 1271.27 929.6C1273.81 929.467 1277.17 928.967 1281.37 928.1L1284.07 927.6ZM1292.6 904.8C1289.8 904.8 1287.7 904.167 1286.3 902.9C1284.9 901.567 1284.2 899.733 1284.2 897.4C1284.2 895.067 1285.1 893.133 1286.9 891.6C1288.76 890 1291.06 889.2 1293.8 889.2C1296.26 889.2 1298.26 889.8 1299.8 891C1301.33 892.2 1302.1 893.9 1302.1 896.1C1302.1 898.767 1301.23 900.9 1299.5 902.5C1297.76 904.033 1295.46 904.8 1292.6 904.8ZM1291.8 958.5C1287.46 958.5 1284.3 956.967 1282.3 953.9C1280.36 950.833 1279.4 946.767 1279.4 941.7C1279.4 938.7 1279.76 934.867 1280.5 930.2C1281.3 925.467 1282.3 921.067 1283.5 917C1284.1 914.867 1284.9 913.4 1285.9 912.6C1286.9 911.8 1288.5 911.4 1290.7 911.4C1294.1 911.4 1295.8 912.533 1295.8 914.8C1295.8 916.467 1295.16 920.333 1293.9 926.4C1292.3 933.733 1291.5 938.7 1291.5 941.3C1291.5 943.3 1291.76 944.833 1292.3 945.9C1292.83 946.967 1293.73 947.5 1295 947.5C1296.2 947.5 1297.7 946.667 1299.5 945C1301.3 943.333 1303.7 940.7 1306.7 937.1C1307.5 936.167 1308.4 935.7 1309.4 935.7C1310.26 935.7 1310.93 936.1 1311.4 936.9C1311.93 937.7 1312.2 938.8 1312.2 940.2C1312.2 942.867 1311.56 944.933 1310.3 946.4C1303.7 954.467 1297.53 958.5 1291.8 958.5ZM1311.2 958.5C1308.67 958.5 1306.87 957.167 1305.8 954.5C1304.8 951.833 1304.3 947.567 1304.3 941.7C1304.3 933.033 1305.54 924.8 1308 917C1308.6 915.067 1309.57 913.667 1310.9 912.8C1312.3 911.867 1314.24 911.4 1316.7 911.4C1318.04 911.4 1318.97 911.567 1319.5 911.9C1320.04 912.233 1320.3 912.867 1320.3 913.8C1320.3 914.867 1319.8 917.267 1318.8 921C1318.14 923.667 1317.6 926 1317.2 928C1316.8 930 1316.47 932.467 1316.2 935.4C1318.4 929.667 1320.87 925 1323.6 921.4C1326.34 917.8 1329 915.233 1331.6 913.7C1334.27 912.167 1336.7 911.4 1338.9 911.4C1343.24 911.4 1345.4 913.567 1345.4 917.9C1345.4 920.5 1344.67 925.2 1343.2 932C1341.94 937.8 1341.3 941.633 1341.3 943.5C1341.3 946.167 1342.27 947.5 1344.2 947.5C1345.54 947.5 1347.1 946.7 1348.9 945.1C1350.77 943.433 1353.24 940.767 1356.3 937.1C1357.1 936.167 1358 935.7 1359 935.7C1359.87 935.7 1360.54 936.1 1361 936.9C1361.54 937.7 1361.8 938.8 1361.8 940.2C1361.8 942.867 1361.17 944.933 1359.9 946.4C1357.04 949.933 1353.94 952.833 1350.6 955.1C1347.34 957.367 1343.6 958.5 1339.4 958.5C1336 958.5 1333.44 957.533 1331.7 955.6C1329.97 953.6 1329.1 950.733 1329.1 947C1329.1 945.133 1329.57 941.8 1330.5 937C1331.37 932.8 1331.8 929.9 1331.8 928.3C1331.8 927.233 1331.44 926.7 1330.7 926.7C1329.84 926.7 1328.6 927.833 1327 930.1C1325.47 932.3 1323.87 935.233 1322.2 938.9C1320.6 942.567 1319.3 946.433 1318.3 950.5C1317.57 953.633 1316.7 955.767 1315.7 956.9C1314.77 957.967 1313.27 958.5 1311.2 958.5ZM1387.61 914.7C1389.28 914.7 1390.45 914.967 1391.11 915.5C1391.85 915.967 1392.21 916.933 1392.21 918.4C1392.21 919.2 1392.18 919.833 1392.11 920.3C1391.85 922.367 1391.01 927.7 1389.61 936.3C1388.61 942.1 1387.98 945.933 1387.71 947.8C1385.18 965 1381.75 978.567 1377.41 988.5C1373.15 998.5 1367.41 1003.5 1360.21 1003.5C1356.81 1003.5 1354.05 1002.43 1351.91 1000.3C1349.78 998.233 1348.71 995.5 1348.71 992.1C1348.71 987.367 1350.58 982.267 1354.31 976.8C1358.05 971.4 1365.05 964.733 1375.31 956.8L1375.91 952.9C1374.78 954.7 1373.28 956.1 1371.41 957.1C1369.61 958.033 1367.81 958.5 1366.01 958.5C1361.88 958.5 1358.58 957 1356.11 954C1353.65 951 1352.41 947.067 1352.41 942.2C1352.41 936.867 1353.65 931.833 1356.11 927.1C1358.58 922.3 1361.85 918.467 1365.91 915.6C1370.05 912.667 1374.41 911.2 1379.01 911.2C1380.48 911.2 1381.45 911.5 1381.91 912.1C1382.45 912.633 1382.88 913.633 1383.21 915.1C1384.48 914.833 1385.95 914.7 1387.61 914.7ZM1369.61 948.4C1371.15 948.4 1372.61 947.467 1374.01 945.6C1375.41 943.733 1376.41 941.067 1377.01 937.6L1380.21 920.5C1377.48 920.567 1374.95 921.633 1372.61 923.7C1370.28 925.7 1368.41 928.367 1367.01 931.7C1365.61 935.033 1364.91 938.567 1364.91 942.3C1364.91 944.367 1365.31 945.9 1366.11 946.9C1366.98 947.9 1368.15 948.4 1369.61 948.4ZM1361.31 993.8C1362.98 993.8 1364.85 991.8 1366.91 987.8C1369.05 983.8 1371.08 977.433 1373.01 968.7C1367.88 973.1 1364.18 977.067 1361.91 980.6C1359.65 984.133 1358.51 987.233 1358.51 989.9C1358.51 991.033 1358.71 991.967 1359.11 992.7C1359.58 993.433 1360.31 993.8 1361.31 993.8ZM1416.75 960.7C1413.28 960.7 1410.61 959.9 1408.75 958.3C1406.95 956.7 1406.05 954.9 1406.05 952.9C1406.05 951.167 1406.68 949.667 1407.95 948.4C1409.21 947.133 1411.08 946.5 1413.55 946.5C1414.41 946.5 1415.41 946.6 1416.55 946.8C1417.75 946.933 1418.65 947.033 1419.25 947.1C1419.18 945.367 1418.78 943.733 1418.05 942.2C1417.38 940.667 1416.51 939.2 1415.45 937.8C1414.38 936.333 1413.38 935.067 1412.45 934C1410.38 937.933 1408.31 941.2 1406.25 943.8C1404.25 946.4 1402.05 948.867 1399.65 951.2C1398.45 952.4 1397.18 953 1395.85 953C1394.78 953 1393.91 952.633 1393.25 951.9C1392.58 951.1 1392.25 950.133 1392.25 949C1392.25 947.667 1392.71 946.433 1393.65 945.3L1394.95 943.7C1398.61 939.167 1401.38 935.433 1403.25 932.5C1404.45 930.567 1405.65 928.267 1406.85 925.6C1408.11 922.933 1409.75 919.3 1411.75 914.7C1413.01 911.767 1415.65 910.3 1419.65 910.3C1421.51 910.3 1422.81 910.467 1423.55 910.8C1424.28 911.133 1424.65 911.667 1424.65 912.4C1424.65 912.8 1424.51 913.433 1424.25 914.3C1423.98 915.167 1423.61 916.033 1423.15 916.9C1421.95 919.3 1421.35 921.333 1421.35 923C1421.35 924 1421.68 925.1 1422.35 926.3C1423.08 927.5 1424.18 929 1425.65 930.8C1427.78 933.6 1429.38 936 1430.45 938C1431.58 939.933 1432.15 942.067 1432.15 944.4C1432.15 947.2 1431.48 949.867 1430.15 952.4C1428.88 954.867 1427.08 956.867 1424.75 958.4C1422.41 959.933 1419.75 960.7 1416.75 960.7Z" fill="black"/>
</svg>
