<svg width="382.26003417968747px" height="140.08001708984375px" xmlns="http://www.w3.org/2000/svg" viewBox="58.86998291015627 4.959991455078125 382.26003417968747 140.08001708984375" style="background: rgb(0, 0, 0); --darkreader-inline-bgcolor: #000000; --darkreader-inline-bgimage: none;" data-darkreader-inline-bgcolor="" data-darkreader-inline-bgimage="" preserveAspectRatio="xMidYMid"><defs><filter id="editing-hole" x="-100%" y="-100%" width="300%" height="300%"><feFlood flood-color="#000000" result="black"></feFlood><feMorphology operator="dilate" radius="2" in="SourceGraphic" result="erode"></feMorphology><feGaussianBlur in="erode" stdDeviation="4" result="blur"></feGaussianBlur><feOffset in="blur" dx="2" dy="2" result="offset"></feOffset><feComposite operator="atop" in="offset" in2="black" result="merge"></feComposite><feComposite operator="in" in="merge" in2="SourceGraphic" result="inner-shadow"></feComposite></filter></defs><g filter="url(#editing-hole)"><g transform="translate(119.79617220163345, 99.57499885559082)"><path d="M9.34-21.06L9.34-21.06L9.34-21.06Q5.63-20.54 3.20-20.54L3.20-20.54L3.20-20.54Q2.37-20.54 2.37-21.18L2.37-21.18L2.37-21.18Q2.37-22.66 4.38-24.29L4.38-24.29L4.38-24.29Q6.40-25.92 10.94-27.14L10.94-27.14L10.94-27.14Q12.99-34.43 15.62-40.51L15.62-40.51L15.62-40.51Q9.22-40.19 5.12-36.29L5.12-36.29L5.12-36.29Q4.10-35.26 3.46-34.69L3.46-34.69L3.46-34.69Q2.82-34.11 2.34-34.11L2.34-34.11L2.34-34.11Q1.86-34.11 1.41-34.88L1.41-34.88L1.41-34.88Q0.96-35.65 0.96-36.93L0.96-36.93L0.96-36.93Q1.02-41.86 7.62-44.93L7.62-44.93L7.62-44.93Q14.21-48 23.87-47.94L23.87-47.94L43.07-47.62L43.07-47.62Q44.80-47.62 44.80-46.27L44.80-46.27L44.80-46.27Q44.80-45.89 44.29-44.90L44.29-44.90L44.29-44.90Q43.78-43.90 43.39-42.75L43.39-42.75L43.39-42.75Q42.56-40.45 39.81-40.45L39.81-40.45L37.76-40.45L29.25-40.51L24.32-40.51L24.32-40.51Q23.81-36.86 21.25-28.61L21.25-28.61L32.96-28.42L32.96-28.42Q33.98-28.42 33.98-27.20L33.98-27.20L33.98-27.20Q33.98-26.82 33.66-25.86L33.66-25.86L33.66-25.86Q33.34-24.90 33.09-23.87L33.09-23.87L33.09-23.87Q32.58-21.76 30.91-21.76L30.91-21.76L21.18-22.21L20.35-22.21L20.35-22.21Q19.97-22.21 19.46-22.14L19.46-22.14L19.46-22.14Q16.13-9.92 16.13-2.82L16.13-2.82L16.13-2.82Q16.13 0.96 8.77 0.96L8.77 0.96L8.77 0.96Q7.17 0.96 6.88-0.67L6.88-0.67L6.88-0.67Q6.59-2.30 6.59-4.99L6.59-4.99L6.59-4.99Q6.59-10.75 9.34-21.06ZM61.70-5.44L61.70-5.44L61.70-5.44Q56.64 0.51 49.57 0.51L49.57 0.51L49.57 0.51Q42.50 0.51 38.98-3.10L38.98-3.10L38.98-3.10Q35.46-6.72 35.52-12.10L35.52-12.10L35.52-12.10Q35.46-19.71 40.32-25.22L40.32-25.22L40.32-25.22Q45.18-30.72 53.06-30.72L53.06-30.72L53.06-30.72Q56.64-30.72 58.82-29.82L58.82-29.82L58.82-29.82Q62.59-28.29 62.59-26.94L62.59-26.94L62.59-26.94Q62.59-25.92 57.31-25.89L57.31-25.89L57.31-25.89Q52.03-25.86 48.48-22.24L48.48-22.24L48.48-22.24Q44.93-18.62 44.93-13.12L44.93-13.12L44.93-13.12Q44.93-10.24 46.62-8.29L46.62-8.29L46.62-8.29Q48.32-6.34 51.42-6.34L51.42-6.34L51.42-6.34Q54.53-6.34 56.58-7.62L56.58-7.62L56.58-7.62Q52.03-10.69 52.03-16.51L52.03-16.51L52.03-16.51Q51.97-19.58 54.24-22.11L54.24-22.11L54.24-22.11Q56.51-24.64 60.06-24.67L60.06-24.67L60.06-24.67Q63.62-24.70 65.15-22.72L65.15-22.72L65.15-22.72Q66.69-20.74 66.69-17.63L66.69-17.63L66.69-17.63Q66.69-14.53 65.22-11.07L65.22-11.07L65.60-11.07L65.60-11.07Q68.42-11.14 70.46-13.06L70.46-13.06L70.46-13.06Q71.23-13.82 71.78-14.40L71.78-14.40L71.78-14.40Q72.32-14.98 72.90-14.98L72.90-14.98L72.90-14.98Q73.79-14.98 73.79-12.86L73.79-12.86L73.79-12.86Q73.79-8.96 71.49-7.01L71.49-7.01L71.49-7.01Q69.18-5.06 66.40-5.06L66.40-5.06L66.40-5.06Q63.62-5.06 61.70-5.44ZM61.12-12.86L61.12-12.86L61.12-12.86Q62.21-15.17 62.21-17.34L62.21-17.34L62.21-17.34Q62.21-19.52 60.80-19.52L60.80-19.52L60.80-19.52Q60.22-19.52 59.84-18.69L59.84-18.69L59.84-18.69Q59.46-17.86 59.46-17.09L59.46-17.09L59.46-17.09Q59.46-14.53 61.12-12.86ZM96.45-5.44L96.45-5.44L96.45-5.44Q91.39 0.51 84.32 0.51L84.32 0.51L84.32 0.51Q77.25 0.51 73.73-3.10L73.73-3.10L73.73-3.10Q70.21-6.72 70.27-12.10L70.27-12.10L70.27-12.10Q70.21-19.71 75.07-25.22L75.07-25.22L75.07-25.22Q79.94-30.72 87.81-30.72L87.81-30.72L87.81-30.72Q91.39-30.72 93.57-29.82L93.57-29.82L93.57-29.82Q97.34-28.29 97.34-26.94L97.34-26.94L97.34-26.94Q97.34-25.92 92.06-25.89L92.06-25.89L92.06-25.89Q86.78-25.86 83.23-22.24L83.23-22.24L83.23-22.24Q79.68-18.62 79.68-13.12L79.68-13.12L79.68-13.12Q79.68-10.24 81.38-8.29L81.38-8.29L81.38-8.29Q83.07-6.34 86.18-6.34L86.18-6.34L86.18-6.34Q89.28-6.34 91.33-7.62L91.33-7.62L91.33-7.62Q86.78-10.69 86.78-16.51L86.78-16.51L86.78-16.51Q86.72-19.58 88.99-22.11L88.99-22.11L88.99-22.11Q91.26-24.64 94.82-24.67L94.82-24.67L94.82-24.67Q98.37-24.70 99.90-22.72L99.90-22.72L99.90-22.72Q101.44-20.74 101.44-17.63L101.44-17.63L101.44-17.63Q101.44-14.53 99.97-11.07L99.97-11.07L100.35-11.07L100.35-11.07Q103.17-11.14 105.22-13.06L105.22-13.06L105.22-13.06Q105.98-13.82 106.53-14.40L106.53-14.40L106.53-14.40Q107.07-14.98 107.65-14.98L107.65-14.98L107.65-14.98Q108.54-14.98 108.54-12.86L108.54-12.86L108.54-12.86Q108.54-8.96 106.24-7.01L106.24-7.01L106.24-7.01Q103.94-5.06 101.15-5.06L101.15-5.06L101.15-5.06Q98.37-5.06 96.45-5.44ZM95.87-12.86L95.87-12.86L95.87-12.86Q96.96-15.17 96.96-17.34L96.96-17.34L96.96-17.34Q96.96-19.52 95.55-19.52L95.55-19.52L95.55-19.52Q94.98-19.52 94.59-18.69L94.59-18.69L94.59-18.69Q94.21-17.86 94.21-17.09L94.21-17.09L94.21-17.09Q94.21-14.53 95.87-12.86ZM104.38-11.07L104.38-11.07Q104.38-11.84 105.41-11.84L105.41-11.84L105.41-11.84Q106.43-11.84 111.74-10.43L111.74-10.43L111.74-10.43Q112.96-20.93 118.59-33.22L118.59-33.22L118.59-33.22Q120.58-37.70 123.33-37.70L123.33-37.70L123.33-37.70Q123.84-37.70 124.32-36.61L124.32-36.61L124.32-36.61Q124.80-35.52 124.80-33.92L124.80-33.92L124.80-33.92Q124.80-32 122.78-23.36L122.78-23.36L122.78-23.36Q120.77-14.72 120.13-8.32L120.13-8.32L120.13-8.32Q124.35-7.36 127.58-7.36L127.58-7.36L127.58-7.36Q130.82-7.36 133.50-9.06L133.50-9.06L133.50-9.06Q136.19-10.75 138.11-13.44L138.11-13.44L138.11-13.44Q142.08-19.14 142.08-27.14L142.08-27.14L142.08-27.14Q142.02-41.92 130.30-41.92L130.30-41.92L130.30-41.92Q126.14-41.86 115.58-38.21L115.58-38.21L115.58-38.21Q113.54-37.50 112-37.50L112-37.50L112-37.50Q110.46-37.50 110.46-38.40L110.46-38.40L110.46-38.40Q110.46-39.62 112.26-41.28L112.26-41.28L112.26-41.28Q114.05-42.94 116.86-44.48L116.86-44.48L116.86-44.48Q123.78-48.19 130.30-48.19L130.30-48.19L130.30-48.19Q139.26-48.19 145.02-43.39L145.02-43.39L145.02-43.39Q151.81-37.70 151.74-26.11L151.74-26.11L151.74-26.11Q151.74-21.18 150.21-16.38L150.21-16.38L150.21-16.38Q148.67-11.58 145.54-7.84L145.54-7.84L145.54-7.84Q142.40-4.10 137.60-1.79L137.60-1.79L137.60-1.79Q132.80 0.51 126.27 0.51L126.27 0.51L126.27 0.51Q123.65 0.51 119.62-0.64L119.62-0.64L119.62-0.64Q119.17 0.58 117.38 0.58L117.38 0.58L117.38 0.58Q114.05 0.58 112.86-0.54L112.86-0.54L112.86-0.54Q111.68-1.66 111.49-4.22L111.49-4.22L111.49-4.22Q108.42-5.95 106.40-7.81L106.40-7.81L106.40-7.81Q104.38-9.66 104.38-11.07L104.38-11.07ZM180.48-5.44L180.48-5.44L180.48-5.44Q175.42 0.51 168.35 0.51L168.35 0.51L168.35 0.51Q161.28 0.51 157.76-3.10L157.76-3.10L157.76-3.10Q154.24-6.72 154.30-12.10L154.30-12.10L154.30-12.10Q154.24-19.71 159.10-25.22L159.10-25.22L159.10-25.22Q163.97-30.72 171.84-30.72L171.84-30.72L171.84-30.72Q175.42-30.72 177.60-29.82L177.60-29.82L177.60-29.82Q181.38-28.29 181.38-26.94L181.38-26.94L181.38-26.94Q181.38-25.92 176.10-25.89L176.10-25.89L176.10-25.89Q170.82-25.86 167.26-22.24L167.26-22.24L167.26-22.24Q163.71-18.62 163.71-13.12L163.71-13.12L163.71-13.12Q163.71-10.24 165.41-8.29L165.41-8.29L165.41-8.29Q167.10-6.34 170.21-6.34L170.21-6.34L170.21-6.34Q173.31-6.34 175.36-7.62L175.36-7.62L175.36-7.62Q170.82-10.69 170.82-16.51L170.82-16.51L170.82-16.51Q170.75-19.58 173.02-22.11L173.02-22.11L173.02-22.11Q175.30-24.64 178.85-24.67L178.85-24.67L178.85-24.67Q182.40-24.70 183.94-22.72L183.94-22.72L183.94-22.72Q185.47-20.74 185.47-17.63L185.47-17.63L185.47-17.63Q185.47-14.53 184-11.07L184-11.07L184.38-11.07L184.38-11.07Q187.20-11.14 189.25-13.06L189.25-13.06L189.25-13.06Q190.02-13.82 190.56-14.40L190.56-14.40L190.56-14.40Q191.10-14.98 191.68-14.98L191.68-14.98L191.68-14.98Q192.58-14.98 192.58-12.86L192.58-12.86L192.58-12.86Q192.58-8.96 190.27-7.01L190.27-7.01L190.27-7.01Q187.97-5.06 185.18-5.06L185.18-5.06L185.18-5.06Q182.40-5.06 180.48-5.44ZM179.90-12.86L179.90-12.86L179.90-12.86Q180.99-15.17 180.99-17.34L180.99-17.34L180.99-17.34Q180.99-19.52 179.58-19.52L179.58-19.52L179.58-19.52Q179.01-19.52 178.62-18.69L178.62-18.69L178.62-18.69Q178.24-17.86 178.24-17.09L178.24-17.09L178.24-17.09Q178.24-14.53 179.90-12.86ZM215.23-5.44L215.23-5.44L215.23-5.44Q210.18 0.51 203.10 0.51L203.10 0.51L203.10 0.51Q196.03 0.51 192.51-3.10L192.51-3.10L192.51-3.10Q188.99-6.72 189.06-12.10L189.06-12.10L189.06-12.10Q188.99-19.71 193.86-25.22L193.86-25.22L193.86-25.22Q198.72-30.72 206.59-30.72L206.59-30.72L206.59-30.72Q210.18-30.72 212.35-29.82L212.35-29.82L212.35-29.82Q216.13-28.29 216.13-26.94L216.13-26.94L216.13-26.94Q216.13-25.92 210.85-25.89L210.85-25.89L210.85-25.89Q205.57-25.86 202.02-22.24L202.02-22.24L202.02-22.24Q198.46-18.62 198.46-13.12L198.46-13.12L198.46-13.12Q198.46-10.24 200.16-8.29L200.16-8.29L200.16-8.29Q201.86-6.34 204.96-6.34L204.96-6.34L204.96-6.34Q208.06-6.34 210.11-7.62L210.11-7.62L210.11-7.62Q205.57-10.69 205.57-16.51L205.57-16.51L205.57-16.51Q205.50-19.58 207.78-22.11L207.78-22.11L207.78-22.11Q210.05-24.64 213.60-24.67L213.60-24.67L213.60-24.67Q217.15-24.70 218.69-22.72L218.69-22.72L218.69-22.72Q220.22-20.74 220.22-17.63L220.22-17.63L220.22-17.63Q220.22-14.53 218.75-11.07L218.75-11.07L219.14-11.07L219.14-11.07Q221.95-11.14 224.00-13.06L224.00-13.06L224.00-13.06Q224.77-13.82 225.31-14.40L225.31-14.40L225.31-14.40Q225.86-14.98 226.43-14.98L226.43-14.98L226.43-14.98Q227.33-14.98 227.33-12.86L227.33-12.86L227.33-12.86Q227.33-8.96 225.02-7.01L225.02-7.01L225.02-7.01Q222.72-5.06 219.94-5.06L219.94-5.06L219.94-5.06Q217.15-5.06 215.23-5.44ZM214.66-12.86L214.66-12.86L214.66-12.86Q215.74-15.17 215.74-17.34L215.74-17.34L215.74-17.34Q215.74-19.52 214.34-19.52L214.34-19.52L214.34-19.52Q213.76-19.52 213.38-18.69L213.38-18.69L213.38-18.69Q212.99-17.86 212.99-17.09L212.99-17.09L212.99-17.09Q212.99-14.53 214.66-12.86ZM263.42-15.10L263.42-15.10L263.42-15.10Q264.58-15.10 264.58-12.16L264.58-12.16L264.58-12.16Q264.58-10.56 263.23-8.29L263.23-8.29L263.23-8.29Q261.89-6.02 259.74-4.13L259.74-4.13L259.74-4.13Q257.60-2.24 254.98-1.02L254.98-1.02L254.98-1.02Q252.35 0.19 249.86 0.19L249.86 0.19L249.86 0.19Q246.34 0.19 245.25-5.57L245.25-5.57L245.25-5.57Q241.41 0.51 233.86 0.51L233.86 0.51L233.86 0.51Q229.25 0.51 226.50-2.30L226.50-2.30L226.50-2.30Q223.74-5.12 223.81-9.15L223.81-9.15L223.81-9.15Q223.81-20.03 231.04-26.30L231.04-26.30L231.04-26.30Q236.03-30.59 241.41-30.59L241.41-30.59L241.41-30.59Q243.84-30.59 245.25-30.21L245.25-30.21L246.72-29.82L246.72-29.82Q249.34-42.18 252.80-46.34L252.80-46.34L252.80-46.34Q253.95-47.74 255.10-47.74L255.10-47.74L255.10-47.74Q256.96-47.74 258.56-45.18L258.56-45.18L258.56-45.18Q259.97-43.07 259.97-41.54L259.97-41.54L259.97-41.54Q259.97-40 259.52-38.53L259.52-38.53L259.52-38.53Q259.07-37.06 258.40-35.81L258.40-35.81L258.40-35.81Q257.73-34.56 256.90-33.38L256.90-33.38L256.90-33.38Q256.06-32.19 255.23-30.98L255.23-30.98L255.23-30.98Q253.38-24.06 252.48-15.49L252.48-15.49L252.48-15.49Q252.22-13.06 252.22-11.58L252.22-11.58L252.22-11.58Q252.22-7.17 253.70-7.17L253.70-7.17L253.70-7.17Q255.36-7.17 261.76-13.82L261.76-13.82L261.76-13.82Q262.91-15.10 263.42-15.10ZM233.22-11.26L233.22-11.26L233.22-11.26Q233.22-6.34 236.86-6.34L236.86-6.34L236.86-6.34Q239.04-6.34 241.25-8L241.25-8L241.25-8Q243.46-9.66 244.67-13.57L244.67-13.57L244.67-13.57Q244.80-19.33 246.02-26.24L246.02-26.24L246.02-26.24Q240.90-25.22 237.06-21.25L237.06-21.25L237.06-21.25Q233.22-17.28 233.22-11.26Z" fill="#ccc" style="--darkreader-inline-fill: #35393b;" data-darkreader-inline-fill=""></path></g></g><style>text {
  font-size: 64px;
  font-family: Arial Black;
  dominant-baseline: central;
  text-anchor: middle;
}</style><style class="darkreader darkreader--sync" media="screen"></style></svg>